<?xml version="1.0" encoding="utf-8"?>
<svg xmlns="http://www.w3.org/2000/svg" xmlns:xlink="http://www.w3.org/1999/xlink" width="600" height="400" viewBox="0 0 2400 1600">
<defs>
  <clipPath id="clip990">
    <rect x="0" y="0" width="2400" height="1600"/>
  </clipPath>
</defs>
<path clip-path="url(#clip990)" d="
M0 1600 L2400 1600 L2400 0 L0 0  Z
  " fill="#ffffff" fill-rule="evenodd" fill-opacity="1"/>
<defs>
  <clipPath id="clip991">
    <rect x="480" y="0" width="1681" height="1600"/>
  </clipPath>
</defs>
<path clip-path="url(#clip990)" d="
M273.979 1486.45 L2352.76 1486.45 L2352.76 47.2441 L273.979 47.2441  Z
  " fill="#ffffff" fill-rule="evenodd" fill-opacity="1"/>
<defs>
  <clipPath id="clip992">
    <rect x="273" y="47" width="2080" height="1440"/>
  </clipPath>
</defs>
<polyline clip-path="url(#clip992)" style="stroke:#222255; stroke-linecap:butt; stroke-linejoin:round; stroke-width:2; stroke-opacity:0.1; fill:none" points="
  600.236,1486.45 600.236,47.2441 
  "/>
<polyline clip-path="url(#clip992)" style="stroke:#222255; stroke-linecap:butt; stroke-linejoin:round; stroke-width:2; stroke-opacity:0.1; fill:none" points="
  1045.94,1486.45 1045.94,47.2441 
  "/>
<polyline clip-path="url(#clip992)" style="stroke:#222255; stroke-linecap:butt; stroke-linejoin:round; stroke-width:2; stroke-opacity:0.1; fill:none" points="
  1491.65,1486.45 1491.65,47.2441 
  "/>
<polyline clip-path="url(#clip992)" style="stroke:#222255; stroke-linecap:butt; stroke-linejoin:round; stroke-width:2; stroke-opacity:0.1; fill:none" points="
  1937.36,1486.45 1937.36,47.2441 
  "/>
<polyline clip-path="url(#clip992)" style="stroke:#222255; stroke-linecap:butt; stroke-linejoin:round; stroke-width:2; stroke-opacity:0.05; fill:none" points="
  332.812,1486.45 332.812,47.2441 
  "/>
<polyline clip-path="url(#clip992)" style="stroke:#222255; stroke-linecap:butt; stroke-linejoin:round; stroke-width:2; stroke-opacity:0.05; fill:none" points="
  421.954,1486.45 421.954,47.2441 
  "/>
<polyline clip-path="url(#clip992)" style="stroke:#222255; stroke-linecap:butt; stroke-linejoin:round; stroke-width:2; stroke-opacity:0.05; fill:none" points="
  511.095,1486.45 511.095,47.2441 
  "/>
<polyline clip-path="url(#clip992)" style="stroke:#222255; stroke-linecap:butt; stroke-linejoin:round; stroke-width:2; stroke-opacity:0.05; fill:none" points="
  689.378,1486.45 689.378,47.2441 
  "/>
<polyline clip-path="url(#clip992)" style="stroke:#222255; stroke-linecap:butt; stroke-linejoin:round; stroke-width:2; stroke-opacity:0.05; fill:none" points="
  778.519,1486.45 778.519,47.2441 
  "/>
<polyline clip-path="url(#clip992)" style="stroke:#222255; stroke-linecap:butt; stroke-linejoin:round; stroke-width:2; stroke-opacity:0.05; fill:none" points="
  867.661,1486.45 867.661,47.2441 
  "/>
<polyline clip-path="url(#clip992)" style="stroke:#222255; stroke-linecap:butt; stroke-linejoin:round; stroke-width:2; stroke-opacity:0.05; fill:none" points="
  956.802,1486.45 956.802,47.2441 
  "/>
<polyline clip-path="url(#clip992)" style="stroke:#222255; stroke-linecap:butt; stroke-linejoin:round; stroke-width:2; stroke-opacity:0.05; fill:none" points="
  1135.08,1486.45 1135.08,47.2441 
  "/>
<polyline clip-path="url(#clip992)" style="stroke:#222255; stroke-linecap:butt; stroke-linejoin:round; stroke-width:2; stroke-opacity:0.05; fill:none" points="
  1224.23,1486.45 1224.23,47.2441 
  "/>
<polyline clip-path="url(#clip992)" style="stroke:#222255; stroke-linecap:butt; stroke-linejoin:round; stroke-width:2; stroke-opacity:0.05; fill:none" points="
  1313.37,1486.45 1313.37,47.2441 
  "/>
<polyline clip-path="url(#clip992)" style="stroke:#222255; stroke-linecap:butt; stroke-linejoin:round; stroke-width:2; stroke-opacity:0.05; fill:none" points="
  1402.51,1486.45 1402.51,47.2441 
  "/>
<polyline clip-path="url(#clip992)" style="stroke:#222255; stroke-linecap:butt; stroke-linejoin:round; stroke-width:2; stroke-opacity:0.05; fill:none" points="
  1580.79,1486.45 1580.79,47.2441 
  "/>
<polyline clip-path="url(#clip992)" style="stroke:#222255; stroke-linecap:butt; stroke-linejoin:round; stroke-width:2; stroke-opacity:0.05; fill:none" points="
  1669.93,1486.45 1669.93,47.2441 
  "/>
<polyline clip-path="url(#clip992)" style="stroke:#222255; stroke-linecap:butt; stroke-linejoin:round; stroke-width:2; stroke-opacity:0.05; fill:none" points="
  1759.07,1486.45 1759.07,47.2441 
  "/>
<polyline clip-path="url(#clip992)" style="stroke:#222255; stroke-linecap:butt; stroke-linejoin:round; stroke-width:2; stroke-opacity:0.05; fill:none" points="
  1848.22,1486.45 1848.22,47.2441 
  "/>
<polyline clip-path="url(#clip992)" style="stroke:#222255; stroke-linecap:butt; stroke-linejoin:round; stroke-width:2; stroke-opacity:0.05; fill:none" points="
  2026.5,1486.45 2026.5,47.2441 
  "/>
<polyline clip-path="url(#clip992)" style="stroke:#222255; stroke-linecap:butt; stroke-linejoin:round; stroke-width:2; stroke-opacity:0.05; fill:none" points="
  2115.64,1486.45 2115.64,47.2441 
  "/>
<polyline clip-path="url(#clip992)" style="stroke:#222255; stroke-linecap:butt; stroke-linejoin:round; stroke-width:2; stroke-opacity:0.05; fill:none" points="
  2204.78,1486.45 2204.78,47.2441 
  "/>
<polyline clip-path="url(#clip992)" style="stroke:#222255; stroke-linecap:butt; stroke-linejoin:round; stroke-width:2; stroke-opacity:0.05; fill:none" points="
  2293.92,1486.45 2293.92,47.2441 
  "/>
<polyline clip-path="url(#clip990)" style="stroke:#222255; stroke-linecap:butt; stroke-linejoin:round; stroke-width:4; stroke-opacity:0; fill:none" points="
  600.236,1486.45 600.236,1467.55 
  "/>
<polyline clip-path="url(#clip990)" style="stroke:#222255; stroke-linecap:butt; stroke-linejoin:round; stroke-width:4; stroke-opacity:0; fill:none" points="
  1045.94,1486.45 1045.94,1467.55 
  "/>
<polyline clip-path="url(#clip990)" style="stroke:#222255; stroke-linecap:butt; stroke-linejoin:round; stroke-width:4; stroke-opacity:0; fill:none" points="
  1491.65,1486.45 1491.65,1467.55 
  "/>
<polyline clip-path="url(#clip990)" style="stroke:#222255; stroke-linecap:butt; stroke-linejoin:round; stroke-width:4; stroke-opacity:0; fill:none" points="
  1937.36,1486.45 1937.36,1467.55 
  "/>
<polyline clip-path="url(#clip990)" style="stroke:#222255; stroke-linecap:butt; stroke-linejoin:round; stroke-width:4; stroke-opacity:0; fill:none" points="
  332.812,1486.45 332.812,1477 
  "/>
<polyline clip-path="url(#clip990)" style="stroke:#222255; stroke-linecap:butt; stroke-linejoin:round; stroke-width:4; stroke-opacity:0; fill:none" points="
  421.954,1486.45 421.954,1477 
  "/>
<polyline clip-path="url(#clip990)" style="stroke:#222255; stroke-linecap:butt; stroke-linejoin:round; stroke-width:4; stroke-opacity:0; fill:none" points="
  511.095,1486.45 511.095,1477 
  "/>
<polyline clip-path="url(#clip990)" style="stroke:#222255; stroke-linecap:butt; stroke-linejoin:round; stroke-width:4; stroke-opacity:0; fill:none" points="
  689.378,1486.45 689.378,1477 
  "/>
<polyline clip-path="url(#clip990)" style="stroke:#222255; stroke-linecap:butt; stroke-linejoin:round; stroke-width:4; stroke-opacity:0; fill:none" points="
  778.519,1486.45 778.519,1477 
  "/>
<polyline clip-path="url(#clip990)" style="stroke:#222255; stroke-linecap:butt; stroke-linejoin:round; stroke-width:4; stroke-opacity:0; fill:none" points="
  867.661,1486.45 867.661,1477 
  "/>
<polyline clip-path="url(#clip990)" style="stroke:#222255; stroke-linecap:butt; stroke-linejoin:round; stroke-width:4; stroke-opacity:0; fill:none" points="
  956.802,1486.45 956.802,1477 
  "/>
<polyline clip-path="url(#clip990)" style="stroke:#222255; stroke-linecap:butt; stroke-linejoin:round; stroke-width:4; stroke-opacity:0; fill:none" points="
  1135.08,1486.45 1135.08,1477 
  "/>
<polyline clip-path="url(#clip990)" style="stroke:#222255; stroke-linecap:butt; stroke-linejoin:round; stroke-width:4; stroke-opacity:0; fill:none" points="
  1224.23,1486.45 1224.23,1477 
  "/>
<polyline clip-path="url(#clip990)" style="stroke:#222255; stroke-linecap:butt; stroke-linejoin:round; stroke-width:4; stroke-opacity:0; fill:none" points="
  1313.37,1486.45 1313.37,1477 
  "/>
<polyline clip-path="url(#clip990)" style="stroke:#222255; stroke-linecap:butt; stroke-linejoin:round; stroke-width:4; stroke-opacity:0; fill:none" points="
  1402.51,1486.45 1402.51,1477 
  "/>
<polyline clip-path="url(#clip990)" style="stroke:#222255; stroke-linecap:butt; stroke-linejoin:round; stroke-width:4; stroke-opacity:0; fill:none" points="
  1580.79,1486.45 1580.79,1477 
  "/>
<polyline clip-path="url(#clip990)" style="stroke:#222255; stroke-linecap:butt; stroke-linejoin:round; stroke-width:4; stroke-opacity:0; fill:none" points="
  1669.93,1486.45 1669.93,1477 
  "/>
<polyline clip-path="url(#clip990)" style="stroke:#222255; stroke-linecap:butt; stroke-linejoin:round; stroke-width:4; stroke-opacity:0; fill:none" points="
  1759.07,1486.45 1759.07,1477 
  "/>
<polyline clip-path="url(#clip990)" style="stroke:#222255; stroke-linecap:butt; stroke-linejoin:round; stroke-width:4; stroke-opacity:0; fill:none" points="
  1848.22,1486.45 1848.22,1477 
  "/>
<polyline clip-path="url(#clip990)" style="stroke:#222255; stroke-linecap:butt; stroke-linejoin:round; stroke-width:4; stroke-opacity:0; fill:none" points="
  2026.5,1486.45 2026.5,1477 
  "/>
<polyline clip-path="url(#clip990)" style="stroke:#222255; stroke-linecap:butt; stroke-linejoin:round; stroke-width:4; stroke-opacity:0; fill:none" points="
  2115.64,1486.45 2115.64,1477 
  "/>
<polyline clip-path="url(#clip990)" style="stroke:#222255; stroke-linecap:butt; stroke-linejoin:round; stroke-width:4; stroke-opacity:0; fill:none" points="
  2204.78,1486.45 2204.78,1477 
  "/>
<polyline clip-path="url(#clip990)" style="stroke:#222255; stroke-linecap:butt; stroke-linejoin:round; stroke-width:4; stroke-opacity:0; fill:none" points="
  2293.92,1486.45 2293.92,1477 
  "/>
<path clip-path="url(#clip990)" d="M526.73 1544.91 L543.049 1544.91 L543.049 1548.85 L521.105 1548.85 L521.105 1544.91 Q523.767 1542.16 528.35 1537.53 Q532.957 1532.88 534.137 1531.53 Q536.383 1529.01 537.262 1527.27 Q538.165 1525.51 538.165 1523.82 Q538.165 1521.07 536.221 1519.33 Q534.299 1517.6 531.197 1517.6 Q528.998 1517.6 526.545 1518.36 Q524.114 1519.13 521.336 1520.68 L521.336 1515.95 Q524.16 1514.82 526.614 1514.24 Q529.068 1513.66 531.105 1513.66 Q536.475 1513.66 539.67 1516.35 Q542.864 1519.03 542.864 1523.52 Q542.864 1525.65 542.054 1527.57 Q541.267 1529.47 539.16 1532.07 Q538.582 1532.74 535.48 1535.95 Q532.378 1539.15 526.73 1544.91 Z" fill="#000000" fill-rule="evenodd" fill-opacity="1" /><path clip-path="url(#clip990)" d="M562.864 1517.37 Q559.253 1517.37 557.424 1520.93 Q555.619 1524.47 555.619 1531.6 Q555.619 1538.71 557.424 1542.27 Q559.253 1545.82 562.864 1545.82 Q566.498 1545.82 568.304 1542.27 Q570.132 1538.71 570.132 1531.6 Q570.132 1524.47 568.304 1520.93 Q566.498 1517.37 562.864 1517.37 M562.864 1513.66 Q568.674 1513.66 571.73 1518.27 Q574.808 1522.85 574.808 1531.6 Q574.808 1540.33 571.73 1544.94 Q568.674 1549.52 562.864 1549.52 Q557.054 1549.52 553.975 1544.94 Q550.92 1540.33 550.92 1531.6 Q550.92 1522.85 553.975 1518.27 Q557.054 1513.66 562.864 1513.66 Z" fill="#000000" fill-rule="evenodd" fill-opacity="1" /><path clip-path="url(#clip990)" d="M583.836 1544.91 L591.475 1544.91 L591.475 1518.55 L583.165 1520.21 L583.165 1515.95 L591.429 1514.29 L596.104 1514.29 L596.104 1544.91 L603.743 1544.91 L603.743 1548.85 L583.836 1548.85 L583.836 1544.91 Z" fill="#000000" fill-rule="evenodd" fill-opacity="1" /><path clip-path="url(#clip990)" d="M617.215 1544.91 L633.535 1544.91 L633.535 1548.85 L611.591 1548.85 L611.591 1544.91 Q614.253 1542.16 618.836 1537.53 Q623.442 1532.88 624.623 1531.53 Q626.868 1529.01 627.748 1527.27 Q628.651 1525.51 628.651 1523.82 Q628.651 1521.07 626.706 1519.33 Q624.785 1517.6 621.683 1517.6 Q619.484 1517.6 617.03 1518.36 Q614.6 1519.13 611.822 1520.68 L611.822 1515.95 Q614.646 1514.82 617.1 1514.24 Q619.553 1513.66 621.59 1513.66 Q626.961 1513.66 630.155 1516.35 Q633.35 1519.03 633.35 1523.52 Q633.35 1525.65 632.539 1527.57 Q631.752 1529.47 629.646 1532.07 Q629.067 1532.74 625.965 1535.95 Q622.864 1539.15 617.215 1544.91 Z" fill="#000000" fill-rule="evenodd" fill-opacity="1" /><path clip-path="url(#clip990)" d="M643.35 1542.97 L648.234 1542.97 L648.234 1548.85 L643.35 1548.85 L643.35 1542.97 Z" fill="#000000" fill-rule="evenodd" fill-opacity="1" /><path clip-path="url(#clip990)" d="M658.465 1514.29 L676.822 1514.29 L676.822 1518.22 L662.748 1518.22 L662.748 1526.7 Q663.766 1526.35 664.785 1526.19 Q665.803 1526 666.822 1526 Q672.609 1526 675.988 1529.17 Q679.368 1532.34 679.368 1537.76 Q679.368 1543.34 675.896 1546.44 Q672.424 1549.52 666.104 1549.52 Q663.928 1549.52 661.66 1549.15 Q659.414 1548.78 657.007 1548.04 L657.007 1543.34 Q659.09 1544.47 661.312 1545.03 Q663.535 1545.58 666.012 1545.58 Q670.016 1545.58 672.354 1543.48 Q674.692 1541.37 674.692 1537.76 Q674.692 1534.15 672.354 1532.04 Q670.016 1529.94 666.012 1529.94 Q664.137 1529.94 662.262 1530.35 Q660.41 1530.77 658.465 1531.65 L658.465 1514.29 Z" fill="#000000" fill-rule="evenodd" fill-opacity="1" /><path clip-path="url(#clip990)" d="M971.939 1544.91 L988.258 1544.91 L988.258 1548.85 L966.314 1548.85 L966.314 1544.91 Q968.976 1542.16 973.559 1537.53 Q978.166 1532.88 979.346 1531.53 Q981.592 1529.01 982.471 1527.27 Q983.374 1525.51 983.374 1523.82 Q983.374 1521.07 981.43 1519.33 Q979.508 1517.6 976.407 1517.6 Q974.208 1517.6 971.754 1518.36 Q969.323 1519.13 966.546 1520.68 L966.546 1515.95 Q969.37 1514.82 971.823 1514.24 Q974.277 1513.66 976.314 1513.66 Q981.684 1513.66 984.879 1516.35 Q988.073 1519.03 988.073 1523.52 Q988.073 1525.65 987.263 1527.57 Q986.476 1529.47 984.37 1532.07 Q983.791 1532.74 980.689 1535.95 Q977.587 1539.15 971.939 1544.91 Z" fill="#000000" fill-rule="evenodd" fill-opacity="1" /><path clip-path="url(#clip990)" d="M1008.07 1517.37 Q1004.46 1517.37 1002.63 1520.93 Q1000.83 1524.47 1000.83 1531.6 Q1000.83 1538.71 1002.63 1542.27 Q1004.46 1545.82 1008.07 1545.82 Q1011.71 1545.82 1013.51 1542.27 Q1015.34 1538.71 1015.34 1531.6 Q1015.34 1524.47 1013.51 1520.93 Q1011.71 1517.37 1008.07 1517.37 M1008.07 1513.66 Q1013.88 1513.66 1016.94 1518.27 Q1020.02 1522.85 1020.02 1531.6 Q1020.02 1540.33 1016.94 1544.94 Q1013.88 1549.52 1008.07 1549.52 Q1002.26 1549.52 999.184 1544.94 Q996.129 1540.33 996.129 1531.6 Q996.129 1522.85 999.184 1518.27 Q1002.26 1513.66 1008.07 1513.66 Z" fill="#000000" fill-rule="evenodd" fill-opacity="1" /><path clip-path="url(#clip990)" d="M1029.05 1544.91 L1036.68 1544.91 L1036.68 1518.55 L1028.37 1520.21 L1028.37 1515.95 L1036.64 1514.29 L1041.31 1514.29 L1041.31 1544.91 L1048.95 1544.91 L1048.95 1548.85 L1029.05 1548.85 L1029.05 1544.91 Z" fill="#000000" fill-rule="evenodd" fill-opacity="1" /><path clip-path="url(#clip990)" d="M1058.44 1514.29 L1076.8 1514.29 L1076.8 1518.22 L1062.73 1518.22 L1062.73 1526.7 Q1063.74 1526.35 1064.76 1526.19 Q1065.78 1526 1066.8 1526 Q1072.59 1526 1075.97 1529.17 Q1079.35 1532.34 1079.35 1537.76 Q1079.35 1543.34 1075.87 1546.44 Q1072.4 1549.52 1066.08 1549.52 Q1063.91 1549.52 1061.64 1549.15 Q1059.39 1548.78 1056.98 1548.04 L1056.98 1543.34 Q1059.07 1544.47 1061.29 1545.03 Q1063.51 1545.58 1065.99 1545.58 Q1069.99 1545.58 1072.33 1543.48 Q1074.67 1541.37 1074.67 1537.76 Q1074.67 1534.15 1072.33 1532.04 Q1069.99 1529.94 1065.99 1529.94 Q1064.11 1529.94 1062.24 1530.35 Q1060.39 1530.77 1058.44 1531.65 L1058.44 1514.29 Z" fill="#000000" fill-rule="evenodd" fill-opacity="1" /><path clip-path="url(#clip990)" d="M1088.56 1542.97 L1093.44 1542.97 L1093.44 1548.85 L1088.56 1548.85 L1088.56 1542.97 Z" fill="#000000" fill-rule="evenodd" fill-opacity="1" /><path clip-path="url(#clip990)" d="M1113.63 1517.37 Q1110.02 1517.37 1108.19 1520.93 Q1106.38 1524.47 1106.38 1531.6 Q1106.38 1538.71 1108.19 1542.27 Q1110.02 1545.82 1113.63 1545.82 Q1117.26 1545.82 1119.07 1542.27 Q1120.9 1538.71 1120.9 1531.6 Q1120.9 1524.47 1119.07 1520.93 Q1117.26 1517.37 1113.63 1517.37 M1113.63 1513.66 Q1119.44 1513.66 1122.49 1518.27 Q1125.57 1522.85 1125.57 1531.6 Q1125.57 1540.33 1122.49 1544.94 Q1119.44 1549.52 1113.63 1549.52 Q1107.82 1549.52 1104.74 1544.94 Q1101.68 1540.33 1101.68 1531.6 Q1101.68 1522.85 1104.74 1518.27 Q1107.82 1513.66 1113.63 1513.66 Z" fill="#000000" fill-rule="evenodd" fill-opacity="1" /><path clip-path="url(#clip990)" d="M1418.14 1544.91 L1434.46 1544.91 L1434.46 1548.85 L1412.52 1548.85 L1412.52 1544.91 Q1415.18 1542.16 1419.76 1537.53 Q1424.37 1532.88 1425.55 1531.53 Q1427.8 1529.01 1428.68 1527.27 Q1429.58 1525.51 1429.58 1523.82 Q1429.58 1521.07 1427.63 1519.33 Q1425.71 1517.6 1422.61 1517.6 Q1420.41 1517.6 1417.96 1518.36 Q1415.53 1519.13 1412.75 1520.68 L1412.75 1515.95 Q1415.57 1514.82 1418.03 1514.24 Q1420.48 1513.66 1422.52 1513.66 Q1427.89 1513.66 1431.08 1516.35 Q1434.28 1519.03 1434.28 1523.52 Q1434.28 1525.65 1433.47 1527.57 Q1432.68 1529.47 1430.57 1532.07 Q1430 1532.74 1426.89 1535.95 Q1423.79 1539.15 1418.14 1544.91 Z" fill="#000000" fill-rule="evenodd" fill-opacity="1" /><path clip-path="url(#clip990)" d="M1454.28 1517.37 Q1450.67 1517.37 1448.84 1520.93 Q1447.03 1524.47 1447.03 1531.6 Q1447.03 1538.71 1448.84 1542.27 Q1450.67 1545.82 1454.28 1545.82 Q1457.91 1545.82 1459.72 1542.27 Q1461.55 1538.71 1461.55 1531.6 Q1461.55 1524.47 1459.72 1520.93 Q1457.91 1517.37 1454.28 1517.37 M1454.28 1513.66 Q1460.09 1513.66 1463.14 1518.27 Q1466.22 1522.85 1466.22 1531.6 Q1466.22 1540.33 1463.14 1544.94 Q1460.09 1549.52 1454.28 1549.52 Q1448.47 1549.52 1445.39 1544.94 Q1442.33 1540.33 1442.33 1531.6 Q1442.33 1522.85 1445.39 1518.27 Q1448.47 1513.66 1454.28 1513.66 Z" fill="#000000" fill-rule="evenodd" fill-opacity="1" /><path clip-path="url(#clip990)" d="M1475.25 1544.91 L1482.89 1544.91 L1482.89 1518.55 L1474.58 1520.21 L1474.58 1515.95 L1482.84 1514.29 L1487.52 1514.29 L1487.52 1544.91 L1495.16 1544.91 L1495.16 1548.85 L1475.25 1548.85 L1475.25 1544.91 Z" fill="#000000" fill-rule="evenodd" fill-opacity="1" /><path clip-path="url(#clip990)" d="M1503.42 1514.29 L1525.64 1514.29 L1525.64 1516.28 L1513.1 1548.85 L1508.21 1548.85 L1520.02 1518.22 L1503.42 1518.22 L1503.42 1514.29 Z" fill="#000000" fill-rule="evenodd" fill-opacity="1" /><path clip-path="url(#clip990)" d="M1534.76 1542.97 L1539.65 1542.97 L1539.65 1548.85 L1534.76 1548.85 L1534.76 1542.97 Z" fill="#000000" fill-rule="evenodd" fill-opacity="1" /><path clip-path="url(#clip990)" d="M1549.88 1514.29 L1568.24 1514.29 L1568.24 1518.22 L1554.16 1518.22 L1554.16 1526.7 Q1555.18 1526.35 1556.2 1526.19 Q1557.22 1526 1558.24 1526 Q1564.02 1526 1567.4 1529.17 Q1570.78 1532.34 1570.78 1537.76 Q1570.78 1543.34 1567.31 1546.44 Q1563.84 1549.52 1557.52 1549.52 Q1555.34 1549.52 1553.07 1549.15 Q1550.83 1548.78 1548.42 1548.04 L1548.42 1543.34 Q1550.5 1544.47 1552.73 1545.03 Q1554.95 1545.58 1557.43 1545.58 Q1561.43 1545.58 1563.77 1543.48 Q1566.11 1541.37 1566.11 1537.76 Q1566.11 1534.15 1563.77 1532.04 Q1561.43 1529.94 1557.43 1529.94 Q1555.55 1529.94 1553.68 1530.35 Q1551.82 1530.77 1549.88 1531.65 L1549.88 1514.29 Z" fill="#000000" fill-rule="evenodd" fill-opacity="1" /><path clip-path="url(#clip990)" d="M1863.35 1544.91 L1879.67 1544.91 L1879.67 1548.85 L1857.73 1548.85 L1857.73 1544.91 Q1860.39 1542.16 1864.97 1537.53 Q1869.58 1532.88 1870.76 1531.53 Q1873.01 1529.01 1873.89 1527.27 Q1874.79 1525.51 1874.79 1523.82 Q1874.79 1521.07 1872.84 1519.33 Q1870.92 1517.6 1867.82 1517.6 Q1865.62 1517.6 1863.17 1518.36 Q1860.74 1519.13 1857.96 1520.68 L1857.96 1515.95 Q1860.78 1514.82 1863.24 1514.24 Q1865.69 1513.66 1867.73 1513.66 Q1873.1 1513.66 1876.29 1516.35 Q1879.49 1519.03 1879.49 1523.52 Q1879.49 1525.65 1878.68 1527.57 Q1877.89 1529.47 1875.78 1532.07 Q1875.2 1532.74 1872.1 1535.95 Q1869 1539.15 1863.35 1544.91 Z" fill="#000000" fill-rule="evenodd" fill-opacity="1" /><path clip-path="url(#clip990)" d="M1899.49 1517.37 Q1895.88 1517.37 1894.05 1520.93 Q1892.24 1524.47 1892.24 1531.6 Q1892.24 1538.71 1894.05 1542.27 Q1895.88 1545.82 1899.49 1545.82 Q1903.12 1545.82 1904.93 1542.27 Q1906.76 1538.71 1906.76 1531.6 Q1906.76 1524.47 1904.93 1520.93 Q1903.12 1517.37 1899.49 1517.37 M1899.49 1513.66 Q1905.3 1513.66 1908.35 1518.27 Q1911.43 1522.85 1911.43 1531.6 Q1911.43 1540.33 1908.35 1544.94 Q1905.3 1549.52 1899.49 1549.52 Q1893.68 1549.52 1890.6 1544.94 Q1887.54 1540.33 1887.54 1531.6 Q1887.54 1522.85 1890.6 1518.27 Q1893.68 1513.66 1899.49 1513.66 Z" fill="#000000" fill-rule="evenodd" fill-opacity="1" /><path clip-path="url(#clip990)" d="M1923.68 1544.91 L1940 1544.91 L1940 1548.85 L1918.05 1548.85 L1918.05 1544.91 Q1920.71 1542.16 1925.3 1537.53 Q1929.9 1532.88 1931.08 1531.53 Q1933.33 1529.01 1934.21 1527.27 Q1935.11 1525.51 1935.11 1523.82 Q1935.11 1521.07 1933.17 1519.33 Q1931.25 1517.6 1928.14 1517.6 Q1925.95 1517.6 1923.49 1518.36 Q1921.06 1519.13 1918.28 1520.68 L1918.28 1515.95 Q1921.11 1514.82 1923.56 1514.24 Q1926.01 1513.66 1928.05 1513.66 Q1933.42 1513.66 1936.62 1516.35 Q1939.81 1519.03 1939.81 1523.52 Q1939.81 1525.65 1939 1527.57 Q1938.21 1529.47 1936.11 1532.07 Q1935.53 1532.74 1932.43 1535.95 Q1929.32 1539.15 1923.68 1544.91 Z" fill="#000000" fill-rule="evenodd" fill-opacity="1" /><path clip-path="url(#clip990)" d="M1959.81 1517.37 Q1956.2 1517.37 1954.37 1520.93 Q1952.57 1524.47 1952.57 1531.6 Q1952.57 1538.71 1954.37 1542.27 Q1956.2 1545.82 1959.81 1545.82 Q1963.44 1545.82 1965.25 1542.27 Q1967.08 1538.71 1967.08 1531.6 Q1967.08 1524.47 1965.25 1520.93 Q1963.44 1517.37 1959.81 1517.37 M1959.81 1513.66 Q1965.62 1513.66 1968.68 1518.27 Q1971.76 1522.85 1971.76 1531.6 Q1971.76 1540.33 1968.68 1544.94 Q1965.62 1549.52 1959.81 1549.52 Q1954 1549.52 1950.92 1544.94 Q1947.87 1540.33 1947.87 1531.6 Q1947.87 1522.85 1950.92 1518.27 Q1954 1513.66 1959.81 1513.66 Z" fill="#000000" fill-rule="evenodd" fill-opacity="1" /><path clip-path="url(#clip990)" d="M1979.97 1542.97 L1984.86 1542.97 L1984.86 1548.85 L1979.97 1548.85 L1979.97 1542.97 Z" fill="#000000" fill-rule="evenodd" fill-opacity="1" /><path clip-path="url(#clip990)" d="M2005.04 1517.37 Q2001.43 1517.37 1999.6 1520.93 Q1997.8 1524.47 1997.8 1531.6 Q1997.8 1538.71 1999.6 1542.27 Q2001.43 1545.82 2005.04 1545.82 Q2008.68 1545.82 2010.48 1542.27 Q2012.31 1538.71 2012.31 1531.6 Q2012.31 1524.47 2010.48 1520.93 Q2008.68 1517.37 2005.04 1517.37 M2005.04 1513.66 Q2010.85 1513.66 2013.91 1518.27 Q2016.99 1522.85 2016.99 1531.6 Q2016.99 1540.33 2013.91 1544.94 Q2010.85 1549.52 2005.04 1549.52 Q1999.23 1549.52 1996.15 1544.94 Q1993.1 1540.33 1993.1 1531.6 Q1993.1 1522.85 1996.15 1518.27 Q1999.23 1513.66 2005.04 1513.66 Z" fill="#000000" fill-rule="evenodd" fill-opacity="1" /><polyline clip-path="url(#clip992)" style="stroke:#222255; stroke-linecap:butt; stroke-linejoin:round; stroke-width:2; stroke-opacity:0.1; fill:none" points="
  273.979,1446.46 2352.76,1446.46 
  "/>
<polyline clip-path="url(#clip992)" style="stroke:#222255; stroke-linecap:butt; stroke-linejoin:round; stroke-width:2; stroke-opacity:0.1; fill:none" points="
  273.979,1013.83 2352.76,1013.83 
  "/>
<polyline clip-path="url(#clip992)" style="stroke:#222255; stroke-linecap:butt; stroke-linejoin:round; stroke-width:2; stroke-opacity:0.1; fill:none" points="
  273.979,581.193 2352.76,581.193 
  "/>
<polyline clip-path="url(#clip992)" style="stroke:#222255; stroke-linecap:butt; stroke-linejoin:round; stroke-width:2; stroke-opacity:0.1; fill:none" points="
  273.979,148.557 2352.76,148.557 
  "/>
<polyline clip-path="url(#clip992)" style="stroke:#222255; stroke-linecap:butt; stroke-linejoin:round; stroke-width:2; stroke-opacity:0.05; fill:none" points="
  273.979,1359.94 2352.76,1359.94 
  "/>
<polyline clip-path="url(#clip992)" style="stroke:#222255; stroke-linecap:butt; stroke-linejoin:round; stroke-width:2; stroke-opacity:0.05; fill:none" points="
  273.979,1273.41 2352.76,1273.41 
  "/>
<polyline clip-path="url(#clip992)" style="stroke:#222255; stroke-linecap:butt; stroke-linejoin:round; stroke-width:2; stroke-opacity:0.05; fill:none" points="
  273.979,1186.88 2352.76,1186.88 
  "/>
<polyline clip-path="url(#clip992)" style="stroke:#222255; stroke-linecap:butt; stroke-linejoin:round; stroke-width:2; stroke-opacity:0.05; fill:none" points="
  273.979,1100.36 2352.76,1100.36 
  "/>
<polyline clip-path="url(#clip992)" style="stroke:#222255; stroke-linecap:butt; stroke-linejoin:round; stroke-width:2; stroke-opacity:0.05; fill:none" points="
  273.979,927.301 2352.76,927.301 
  "/>
<polyline clip-path="url(#clip992)" style="stroke:#222255; stroke-linecap:butt; stroke-linejoin:round; stroke-width:2; stroke-opacity:0.05; fill:none" points="
  273.979,840.774 2352.76,840.774 
  "/>
<polyline clip-path="url(#clip992)" style="stroke:#222255; stroke-linecap:butt; stroke-linejoin:round; stroke-width:2; stroke-opacity:0.05; fill:none" points="
  273.979,754.247 2352.76,754.247 
  "/>
<polyline clip-path="url(#clip992)" style="stroke:#222255; stroke-linecap:butt; stroke-linejoin:round; stroke-width:2; stroke-opacity:0.05; fill:none" points="
  273.979,667.72 2352.76,667.72 
  "/>
<polyline clip-path="url(#clip992)" style="stroke:#222255; stroke-linecap:butt; stroke-linejoin:round; stroke-width:2; stroke-opacity:0.05; fill:none" points="
  273.979,494.666 2352.76,494.666 
  "/>
<polyline clip-path="url(#clip992)" style="stroke:#222255; stroke-linecap:butt; stroke-linejoin:round; stroke-width:2; stroke-opacity:0.05; fill:none" points="
  273.979,408.139 2352.76,408.139 
  "/>
<polyline clip-path="url(#clip992)" style="stroke:#222255; stroke-linecap:butt; stroke-linejoin:round; stroke-width:2; stroke-opacity:0.05; fill:none" points="
  273.979,321.611 2352.76,321.611 
  "/>
<polyline clip-path="url(#clip992)" style="stroke:#222255; stroke-linecap:butt; stroke-linejoin:round; stroke-width:2; stroke-opacity:0.05; fill:none" points="
  273.979,235.084 2352.76,235.084 
  "/>
<polyline clip-path="url(#clip992)" style="stroke:#222255; stroke-linecap:butt; stroke-linejoin:round; stroke-width:2; stroke-opacity:0.05; fill:none" points="
  273.979,62.03 2352.76,62.03 
  "/>
<polyline clip-path="url(#clip990)" style="stroke:#222255; stroke-linecap:butt; stroke-linejoin:round; stroke-width:4; stroke-opacity:0; fill:none" points="
  273.979,1446.46 292.877,1446.46 
  "/>
<polyline clip-path="url(#clip990)" style="stroke:#222255; stroke-linecap:butt; stroke-linejoin:round; stroke-width:4; stroke-opacity:0; fill:none" points="
  273.979,1013.83 292.877,1013.83 
  "/>
<polyline clip-path="url(#clip990)" style="stroke:#222255; stroke-linecap:butt; stroke-linejoin:round; stroke-width:4; stroke-opacity:0; fill:none" points="
  273.979,581.193 292.877,581.193 
  "/>
<polyline clip-path="url(#clip990)" style="stroke:#222255; stroke-linecap:butt; stroke-linejoin:round; stroke-width:4; stroke-opacity:0; fill:none" points="
  273.979,148.557 292.877,148.557 
  "/>
<polyline clip-path="url(#clip990)" style="stroke:#222255; stroke-linecap:butt; stroke-linejoin:round; stroke-width:4; stroke-opacity:0; fill:none" points="
  273.979,1359.94 283.428,1359.94 
  "/>
<polyline clip-path="url(#clip990)" style="stroke:#222255; stroke-linecap:butt; stroke-linejoin:round; stroke-width:4; stroke-opacity:0; fill:none" points="
  273.979,1273.41 283.428,1273.41 
  "/>
<polyline clip-path="url(#clip990)" style="stroke:#222255; stroke-linecap:butt; stroke-linejoin:round; stroke-width:4; stroke-opacity:0; fill:none" points="
  273.979,1186.88 283.428,1186.88 
  "/>
<polyline clip-path="url(#clip990)" style="stroke:#222255; stroke-linecap:butt; stroke-linejoin:round; stroke-width:4; stroke-opacity:0; fill:none" points="
  273.979,1100.36 283.428,1100.36 
  "/>
<polyline clip-path="url(#clip990)" style="stroke:#222255; stroke-linecap:butt; stroke-linejoin:round; stroke-width:4; stroke-opacity:0; fill:none" points="
  273.979,927.301 283.428,927.301 
  "/>
<polyline clip-path="url(#clip990)" style="stroke:#222255; stroke-linecap:butt; stroke-linejoin:round; stroke-width:4; stroke-opacity:0; fill:none" points="
  273.979,840.774 283.428,840.774 
  "/>
<polyline clip-path="url(#clip990)" style="stroke:#222255; stroke-linecap:butt; stroke-linejoin:round; stroke-width:4; stroke-opacity:0; fill:none" points="
  273.979,754.247 283.428,754.247 
  "/>
<polyline clip-path="url(#clip990)" style="stroke:#222255; stroke-linecap:butt; stroke-linejoin:round; stroke-width:4; stroke-opacity:0; fill:none" points="
  273.979,667.72 283.428,667.72 
  "/>
<polyline clip-path="url(#clip990)" style="stroke:#222255; stroke-linecap:butt; stroke-linejoin:round; stroke-width:4; stroke-opacity:0; fill:none" points="
  273.979,494.666 283.428,494.666 
  "/>
<polyline clip-path="url(#clip990)" style="stroke:#222255; stroke-linecap:butt; stroke-linejoin:round; stroke-width:4; stroke-opacity:0; fill:none" points="
  273.979,408.139 283.428,408.139 
  "/>
<polyline clip-path="url(#clip990)" style="stroke:#222255; stroke-linecap:butt; stroke-linejoin:round; stroke-width:4; stroke-opacity:0; fill:none" points="
  273.979,321.611 283.428,321.611 
  "/>
<polyline clip-path="url(#clip990)" style="stroke:#222255; stroke-linecap:butt; stroke-linejoin:round; stroke-width:4; stroke-opacity:0; fill:none" points="
  273.979,235.084 283.428,235.084 
  "/>
<polyline clip-path="url(#clip990)" style="stroke:#222255; stroke-linecap:butt; stroke-linejoin:round; stroke-width:4; stroke-opacity:0; fill:none" points="
  273.979,62.03 283.428,62.03 
  "/>
<path clip-path="url(#clip990)" d="M226.035 1432.26 Q222.423 1432.26 220.595 1435.83 Q218.789 1439.37 218.789 1446.5 Q218.789 1453.61 220.595 1457.17 Q222.423 1460.71 226.035 1460.71 Q229.669 1460.71 231.474 1457.17 Q233.303 1453.61 233.303 1446.5 Q233.303 1439.37 231.474 1435.83 Q229.669 1432.26 226.035 1432.26 M226.035 1428.56 Q231.845 1428.56 234.9 1433.17 Q237.979 1437.75 237.979 1446.5 Q237.979 1455.23 234.9 1459.83 Q231.845 1464.42 226.035 1464.42 Q220.224 1464.42 217.146 1459.83 Q214.09 1455.23 214.09 1446.5 Q214.09 1437.75 217.146 1433.17 Q220.224 1428.56 226.035 1428.56 Z" fill="#000000" fill-rule="evenodd" fill-opacity="1" /><path clip-path="url(#clip990)" d="M53.3995 1033.62 L61.0384 1033.62 L61.0384 1007.26 L52.7282 1008.92 L52.7282 1004.66 L60.9921 1003 L65.668 1003 L65.668 1033.62 L73.3068 1033.62 L73.3068 1037.56 L53.3995 1037.56 L53.3995 1033.62 Z" fill="#000000" fill-rule="evenodd" fill-opacity="1" /><path clip-path="url(#clip990)" d="M82.7512 1031.68 L87.6354 1031.68 L87.6354 1037.56 L82.7512 1037.56 L82.7512 1031.68 Z" fill="#000000" fill-rule="evenodd" fill-opacity="1" /><path clip-path="url(#clip990)" d="M107.821 1006.07 Q104.209 1006.07 102.381 1009.64 Q100.575 1013.18 100.575 1020.31 Q100.575 1027.42 102.381 1030.98 Q104.209 1034.52 107.821 1034.52 Q111.455 1034.52 113.26 1030.98 Q115.089 1027.42 115.089 1020.31 Q115.089 1013.18 113.26 1009.64 Q111.455 1006.07 107.821 1006.07 M107.821 1002.37 Q113.631 1002.37 116.686 1006.98 Q119.765 1011.56 119.765 1020.31 Q119.765 1029.04 116.686 1033.64 Q113.631 1038.23 107.821 1038.23 Q102.01 1038.23 98.9317 1033.64 Q95.8761 1029.04 95.8761 1020.31 Q95.8761 1011.56 98.9317 1006.98 Q102.01 1002.37 107.821 1002.37 Z" fill="#000000" fill-rule="evenodd" fill-opacity="1" /><path clip-path="url(#clip990)" d="M156.154 1012.09 L145.575 1022.72 L156.154 1033.3 L153.399 1036.1 L142.774 1025.47 L132.149 1036.1 L129.418 1033.3 L139.973 1022.72 L129.418 1012.09 L132.149 1009.29 L142.774 1019.92 L153.399 1009.29 L156.154 1012.09 Z" fill="#000000" fill-rule="evenodd" fill-opacity="1" /><path clip-path="url(#clip990)" d="M168.515 1033.62 L176.153 1033.62 L176.153 1007.26 L167.843 1008.92 L167.843 1004.66 L176.107 1003 L180.783 1003 L180.783 1033.62 L188.422 1033.62 L188.422 1037.56 L168.515 1037.56 L168.515 1033.62 Z" fill="#000000" fill-rule="evenodd" fill-opacity="1" /><path clip-path="url(#clip990)" d="M207.866 1006.07 Q204.255 1006.07 202.426 1009.64 Q200.621 1013.18 200.621 1020.31 Q200.621 1027.42 202.426 1030.98 Q204.255 1034.52 207.866 1034.52 Q211.501 1034.52 213.306 1030.98 Q215.135 1027.42 215.135 1020.31 Q215.135 1013.18 213.306 1009.64 Q211.501 1006.07 207.866 1006.07 M207.866 1002.37 Q213.676 1002.37 216.732 1006.98 Q219.811 1011.56 219.811 1020.31 Q219.811 1029.04 216.732 1033.64 Q213.676 1038.23 207.866 1038.23 Q202.056 1038.23 198.977 1033.64 Q195.922 1029.04 195.922 1020.31 Q195.922 1011.56 198.977 1006.98 Q202.056 1002.37 207.866 1002.37 Z" fill="#000000" fill-rule="evenodd" fill-opacity="1" /><path clip-path="url(#clip990)" d="M220.996 982.066 L235.91 982.066 L235.91 985.263 L224.475 985.263 L224.475 992.147 Q225.303 991.865 226.13 991.733 Q226.958 991.582 227.785 991.582 Q232.487 991.582 235.233 994.159 Q237.979 996.736 237.979 1001.14 Q237.979 1005.67 235.158 1008.19 Q232.337 1010.69 227.202 1010.69 Q225.434 1010.69 223.591 1010.39 Q221.767 1010.09 219.811 1009.49 L219.811 1005.67 Q221.503 1006.59 223.309 1007.04 Q225.114 1007.49 227.127 1007.49 Q230.381 1007.49 232.28 1005.78 Q234.18 1004.07 234.18 1001.14 Q234.18 998.203 232.28 996.491 Q230.381 994.78 227.127 994.78 Q225.603 994.78 224.08 995.118 Q222.575 995.457 220.996 996.172 L220.996 982.066 Z" fill="#000000" fill-rule="evenodd" fill-opacity="1" /><path clip-path="url(#clip990)" d="M56.6171 600.985 L72.9365 600.985 L72.9365 604.92 L50.9921 604.92 L50.9921 600.985 Q53.6541 598.231 58.2375 593.601 Q62.8439 588.948 64.0245 587.606 Q66.2698 585.083 67.1494 583.346 Q68.0522 581.587 68.0522 579.897 Q68.0522 577.143 66.1078 575.407 Q64.1865 573.671 61.0847 573.671 Q58.8856 573.671 56.4319 574.434 Q54.0014 575.198 51.2236 576.749 L51.2236 572.027 Q54.0477 570.893 56.5014 570.314 Q58.955 569.735 60.9921 569.735 Q66.3624 569.735 69.5568 572.421 Q72.7513 575.106 72.7513 579.596 Q72.7513 581.726 71.9411 583.647 Q71.1541 585.546 69.0476 588.138 Q68.4689 588.809 65.367 592.027 Q62.2652 595.221 56.6171 600.985 Z" fill="#000000" fill-rule="evenodd" fill-opacity="1" /><path clip-path="url(#clip990)" d="M82.7512 599.041 L87.6354 599.041 L87.6354 604.92 L82.7512 604.92 L82.7512 599.041 Z" fill="#000000" fill-rule="evenodd" fill-opacity="1" /><path clip-path="url(#clip990)" d="M107.821 573.439 Q104.209 573.439 102.381 577.004 Q100.575 580.546 100.575 587.675 Q100.575 594.782 102.381 598.346 Q104.209 601.888 107.821 601.888 Q111.455 601.888 113.26 598.346 Q115.089 594.782 115.089 587.675 Q115.089 580.546 113.26 577.004 Q111.455 573.439 107.821 573.439 M107.821 569.735 Q113.631 569.735 116.686 574.342 Q119.765 578.925 119.765 587.675 Q119.765 596.402 116.686 601.008 Q113.631 605.592 107.821 605.592 Q102.01 605.592 98.9317 601.008 Q95.8761 596.402 95.8761 587.675 Q95.8761 578.925 98.9317 574.342 Q102.01 569.735 107.821 569.735 Z" fill="#000000" fill-rule="evenodd" fill-opacity="1" /><path clip-path="url(#clip990)" d="M156.154 579.458 L145.575 590.083 L156.154 600.661 L153.399 603.462 L142.774 592.837 L132.149 603.462 L129.418 600.661 L139.973 590.083 L129.418 579.458 L132.149 576.657 L142.774 587.282 L153.399 576.657 L156.154 579.458 Z" fill="#000000" fill-rule="evenodd" fill-opacity="1" /><path clip-path="url(#clip990)" d="M168.515 600.985 L176.153 600.985 L176.153 574.62 L167.843 576.286 L167.843 572.027 L176.107 570.36 L180.783 570.36 L180.783 600.985 L188.422 600.985 L188.422 604.92 L168.515 604.92 L168.515 600.985 Z" fill="#000000" fill-rule="evenodd" fill-opacity="1" /><path clip-path="url(#clip990)" d="M207.866 573.439 Q204.255 573.439 202.426 577.004 Q200.621 580.546 200.621 587.675 Q200.621 594.782 202.426 598.346 Q204.255 601.888 207.866 601.888 Q211.501 601.888 213.306 598.346 Q215.135 594.782 215.135 587.675 Q215.135 580.546 213.306 577.004 Q211.501 573.439 207.866 573.439 M207.866 569.735 Q213.676 569.735 216.732 574.342 Q219.811 578.925 219.811 587.675 Q219.811 596.402 216.732 601.008 Q213.676 605.592 207.866 605.592 Q202.056 605.592 198.977 601.008 Q195.922 596.402 195.922 587.675 Q195.922 578.925 198.977 574.342 Q202.056 569.735 207.866 569.735 Z" fill="#000000" fill-rule="evenodd" fill-opacity="1" /><path clip-path="url(#clip990)" d="M220.996 549.43 L235.91 549.43 L235.91 552.627 L224.475 552.627 L224.475 559.511 Q225.303 559.229 226.13 559.097 Q226.958 558.947 227.785 558.947 Q232.487 558.947 235.233 561.523 Q237.979 564.1 237.979 568.501 Q237.979 573.034 235.158 575.554 Q232.337 578.055 227.202 578.055 Q225.434 578.055 223.591 577.755 Q221.767 577.454 219.811 576.852 L219.811 573.034 Q221.503 573.955 223.309 574.407 Q225.114 574.858 227.127 574.858 Q230.381 574.858 232.28 573.147 Q234.18 571.435 234.18 568.501 Q234.18 565.567 232.28 563.856 Q230.381 562.144 227.127 562.144 Q225.603 562.144 224.08 562.483 Q222.575 562.821 220.996 563.536 L220.996 549.43 Z" fill="#000000" fill-rule="evenodd" fill-opacity="1" /><path clip-path="url(#clip990)" d="M66.7559 153.651 Q70.1124 154.368 71.9874 156.637 Q73.8855 158.905 73.8855 162.239 Q73.8855 167.354 70.367 170.155 Q66.8485 172.956 60.3671 172.956 Q58.1912 172.956 55.8764 172.516 Q53.5847 172.1 51.131 171.243 L51.131 166.729 Q53.0754 167.863 55.3903 168.442 Q57.7051 169.021 60.2282 169.021 Q64.6263 169.021 66.918 167.285 Q69.2328 165.549 69.2328 162.239 Q69.2328 159.183 67.08 157.47 Q64.9504 155.734 61.131 155.734 L57.1032 155.734 L57.1032 151.891 L61.3161 151.891 Q64.7652 151.891 66.5939 150.526 Q68.4226 149.137 68.4226 146.544 Q68.4226 143.882 66.5245 142.47 Q64.6495 141.035 61.131 141.035 Q59.2097 141.035 57.0106 141.452 Q54.8115 141.868 52.1727 142.748 L52.1727 138.581 Q54.8347 137.841 57.1495 137.47 Q59.4875 137.1 61.5476 137.1 Q66.8717 137.1 69.9735 139.53 Q73.0753 141.938 73.0753 146.058 Q73.0753 148.928 71.4318 150.919 Q69.7883 152.887 66.7559 153.651 Z" fill="#000000" fill-rule="evenodd" fill-opacity="1" /><path clip-path="url(#clip990)" d="M82.7512 166.405 L87.6354 166.405 L87.6354 172.285 L82.7512 172.285 L82.7512 166.405 Z" fill="#000000" fill-rule="evenodd" fill-opacity="1" /><path clip-path="url(#clip990)" d="M107.821 140.803 Q104.209 140.803 102.381 144.368 Q100.575 147.91 100.575 155.039 Q100.575 162.146 102.381 165.711 Q104.209 169.252 107.821 169.252 Q111.455 169.252 113.26 165.711 Q115.089 162.146 115.089 155.039 Q115.089 147.91 113.26 144.368 Q111.455 140.803 107.821 140.803 M107.821 137.1 Q113.631 137.1 116.686 141.706 Q119.765 146.29 119.765 155.039 Q119.765 163.766 116.686 168.373 Q113.631 172.956 107.821 172.956 Q102.01 172.956 98.9317 168.373 Q95.8761 163.766 95.8761 155.039 Q95.8761 146.29 98.9317 141.706 Q102.01 137.1 107.821 137.1 Z" fill="#000000" fill-rule="evenodd" fill-opacity="1" /><path clip-path="url(#clip990)" d="M156.154 146.822 L145.575 157.447 L156.154 168.026 L153.399 170.826 L142.774 160.201 L132.149 170.826 L129.418 168.026 L139.973 157.447 L129.418 146.822 L132.149 144.021 L142.774 154.646 L153.399 144.021 L156.154 146.822 Z" fill="#000000" fill-rule="evenodd" fill-opacity="1" /><path clip-path="url(#clip990)" d="M168.515 168.35 L176.153 168.35 L176.153 141.984 L167.843 143.651 L167.843 139.391 L176.107 137.725 L180.783 137.725 L180.783 168.35 L188.422 168.35 L188.422 172.285 L168.515 172.285 L168.515 168.35 Z" fill="#000000" fill-rule="evenodd" fill-opacity="1" /><path clip-path="url(#clip990)" d="M207.866 140.803 Q204.255 140.803 202.426 144.368 Q200.621 147.91 200.621 155.039 Q200.621 162.146 202.426 165.711 Q204.255 169.252 207.866 169.252 Q211.501 169.252 213.306 165.711 Q215.135 162.146 215.135 155.039 Q215.135 147.91 213.306 144.368 Q211.501 140.803 207.866 140.803 M207.866 137.1 Q213.676 137.1 216.732 141.706 Q219.811 146.29 219.811 155.039 Q219.811 163.766 216.732 168.373 Q213.676 172.956 207.866 172.956 Q202.056 172.956 198.977 168.373 Q195.922 163.766 195.922 155.039 Q195.922 146.29 198.977 141.706 Q202.056 137.1 207.866 137.1 Z" fill="#000000" fill-rule="evenodd" fill-opacity="1" /><path clip-path="url(#clip990)" d="M220.996 116.794 L235.91 116.794 L235.91 119.992 L224.475 119.992 L224.475 126.875 Q225.303 126.593 226.13 126.462 Q226.958 126.311 227.785 126.311 Q232.487 126.311 235.233 128.888 Q237.979 131.464 237.979 135.865 Q237.979 140.398 235.158 142.918 Q232.337 145.42 227.202 145.42 Q225.434 145.42 223.591 145.119 Q221.767 144.818 219.811 144.216 L219.811 140.398 Q221.503 141.32 223.309 141.771 Q225.114 142.222 227.127 142.222 Q230.381 142.222 232.28 140.511 Q234.18 138.799 234.18 135.865 Q234.18 132.931 232.28 131.22 Q230.381 129.508 227.127 129.508 Q225.603 129.508 224.08 129.847 Q222.575 130.185 220.996 130.9 L220.996 116.794 Z" fill="#000000" fill-rule="evenodd" fill-opacity="1" /><polyline clip-path="url(#clip992)" style="stroke:#ee7733; stroke-linecap:butt; stroke-linejoin:round; stroke-width:4.8; stroke-opacity:1; fill:none" points="
  332.812,1441.64 511.095,1393.11 689.378,1287.65 867.661,1153.81 1045.94,969.027 1224.23,796.116 1402.51,708.138 1580.79,966.522 1759.07,1077.05 1937.36,1092.28 
  2115.64,1199.1 2293.92,1445.16 
  "/>
<polyline clip-path="url(#clip992)" style="stroke:#0077bb; stroke-linecap:butt; stroke-linejoin:round; stroke-width:4.8; stroke-opacity:1; fill:none" points="
  332.812,1436.3 511.095,1335.26 689.378,1134.98 867.661,801.373 1045.94,325.275 1224.23,87.9763 1402.51,113.285 1580.79,653.542 1759.07,866.79 1937.36,972.354 
  2115.64,1148.55 2293.92,1445.51 
  "/>
<polyline clip-path="url(#clip992)" style="stroke:#33bbee; stroke-linecap:butt; stroke-linejoin:round; stroke-width:4.8; stroke-opacity:1; fill:none" points="
  332.812,1439.11 511.095,1387.99 689.378,1304.97 867.661,1201.31 1045.94,1077.84 1224.23,1040.98 1402.51,1039.27 1580.79,1185.1 1759.07,1235.83 1937.36,1252.44 
  2115.64,1319.39 2293.92,1445.72 
  "/>
<polyline clip-path="url(#clip992)" style="stroke:#ee3377; stroke-linecap:butt; stroke-linejoin:round; stroke-width:4.8; stroke-opacity:1; fill:none" points="
  332.812,1438.32 511.095,1361.69 689.378,1255.47 867.661,1108.01 1045.94,902.251 1224.23,768.558 1402.51,663.431 1580.79,883.713 1759.07,948.185 1937.36,951.623 
  2115.64,1091.68 2293.92,1444.69 
  "/>
<polyline clip-path="url(#clip992)" style="stroke:#cc3311; stroke-linecap:butt; stroke-linejoin:round; stroke-width:4.8; stroke-opacity:1; fill:none" points="
  332.812,1434.94 511.095,1375.51 689.378,1307.43 867.661,1258.64 1045.94,1210.35 1224.23,1209.84 1402.51,1247.94 1580.79,1331.42 1759.07,1361.63 1937.36,1375.26 
  2115.64,1394.29 
  "/>
<path clip-path="url(#clip990)" d="
M1813.53 406.258 L2283.46 406.258 L2283.46 95.2176 L1813.53 95.2176  Z
  " fill="#ffffff" fill-rule="evenodd" fill-opacity="0.9"/>
<polyline clip-path="url(#clip990)" style="stroke:#222255; stroke-linecap:butt; stroke-linejoin:round; stroke-width:4; stroke-opacity:0.1; fill:none" points="
  1813.53,406.258 2283.46,406.258 2283.46,95.2176 1813.53,95.2176 1813.53,406.258 
  "/>
<polyline clip-path="url(#clip990)" style="stroke:#ee7733; stroke-linecap:butt; stroke-linejoin:round; stroke-width:4; stroke-opacity:1; fill:none" points="
  1836.63,147.058 1975.21,147.058 
  "/>
<path clip-path="url(#clip990)" d="M2005.42 129.778 L2010.09 129.778 L2010.09 161.93 Q2010.09 168.18 2007.71 171.004 Q2005.35 173.828 2000.09 173.828 L1998.31 173.828 L1998.31 169.893 L1999.77 169.893 Q2002.87 169.893 2004.14 168.157 Q2005.42 166.421 2005.42 161.93 L2005.42 129.778 Z" fill="#000000" fill-rule="evenodd" fill-opacity="1" /><path clip-path="url(#clip990)" d="M2031 151.305 Q2025.83 151.305 2023.84 152.486 Q2021.85 153.666 2021.85 156.514 Q2021.85 158.782 2023.33 160.125 Q2024.84 161.444 2027.41 161.444 Q2030.95 161.444 2033.08 158.944 Q2035.23 156.421 2035.23 152.254 L2035.23 151.305 L2031 151.305 M2039.49 149.546 L2039.49 164.338 L2035.23 164.338 L2035.23 160.402 Q2033.77 162.763 2031.6 163.898 Q2029.42 165.009 2026.27 165.009 Q2022.29 165.009 2019.93 162.787 Q2017.59 160.541 2017.59 156.791 Q2017.59 152.416 2020.51 150.194 Q2023.45 147.972 2029.26 147.972 L2035.23 147.972 L2035.23 147.555 Q2035.23 144.615 2033.29 143.018 Q2031.37 141.398 2027.87 141.398 Q2025.65 141.398 2023.54 141.93 Q2021.44 142.463 2019.49 143.527 L2019.49 139.592 Q2021.83 138.69 2024.03 138.25 Q2026.23 137.787 2028.31 137.787 Q2033.94 137.787 2036.71 140.703 Q2039.49 143.62 2039.49 149.546 Z" fill="#000000" fill-rule="evenodd" fill-opacity="1" /><path clip-path="url(#clip990)" d="M2045.21 138.412 L2049.72 138.412 L2057.82 160.171 L2065.93 138.412 L2070.44 138.412 L2060.72 164.338 L2054.93 164.338 L2045.21 138.412 Z" fill="#000000" fill-rule="evenodd" fill-opacity="1" /><path clip-path="url(#clip990)" d="M2088.1 151.305 Q2082.94 151.305 2080.95 152.486 Q2078.96 153.666 2078.96 156.514 Q2078.96 158.782 2080.44 160.125 Q2081.95 161.444 2084.51 161.444 Q2088.06 161.444 2090.19 158.944 Q2092.34 156.421 2092.34 152.254 L2092.34 151.305 L2088.1 151.305 M2096.6 149.546 L2096.6 164.338 L2092.34 164.338 L2092.34 160.402 Q2090.88 162.763 2088.7 163.898 Q2086.53 165.009 2083.38 165.009 Q2079.4 165.009 2077.04 162.787 Q2074.7 160.541 2074.7 156.791 Q2074.7 152.416 2077.62 150.194 Q2080.56 147.972 2086.37 147.972 L2092.34 147.972 L2092.34 147.555 Q2092.34 144.615 2090.39 143.018 Q2088.47 141.398 2084.98 141.398 Q2082.76 141.398 2080.65 141.93 Q2078.54 142.463 2076.6 143.527 L2076.6 139.592 Q2078.94 138.69 2081.13 138.25 Q2083.33 137.787 2085.42 137.787 Q2091.04 137.787 2093.82 140.703 Q2096.6 143.62 2096.6 149.546 Z" fill="#000000" fill-rule="evenodd" fill-opacity="1" /><polyline clip-path="url(#clip990)" style="stroke:#0077bb; stroke-linecap:butt; stroke-linejoin:round; stroke-width:4; stroke-opacity:1; fill:none" points="
  1836.63,198.898 1975.21,198.898 
  "/>
<path clip-path="url(#clip990)" d="M2005.42 181.618 L2010.09 181.618 L2010.09 213.77 Q2010.09 220.02 2007.71 222.844 Q2005.35 225.668 2000.09 225.668 L1998.31 225.668 L1998.31 221.733 L1999.77 221.733 Q2002.87 221.733 2004.14 219.997 Q2005.42 218.261 2005.42 213.77 L2005.42 181.618 Z" fill="#000000" fill-rule="evenodd" fill-opacity="1" /><path clip-path="url(#clip990)" d="M2031 203.145 Q2025.83 203.145 2023.84 204.326 Q2021.85 205.506 2021.85 208.354 Q2021.85 210.622 2023.33 211.965 Q2024.84 213.284 2027.41 213.284 Q2030.95 213.284 2033.08 210.784 Q2035.23 208.261 2035.23 204.094 L2035.23 203.145 L2031 203.145 M2039.49 201.386 L2039.49 216.178 L2035.23 216.178 L2035.23 212.242 Q2033.77 214.603 2031.6 215.738 Q2029.42 216.849 2026.27 216.849 Q2022.29 216.849 2019.93 214.627 Q2017.59 212.381 2017.59 208.631 Q2017.59 204.256 2020.51 202.034 Q2023.45 199.812 2029.26 199.812 L2035.23 199.812 L2035.23 199.395 Q2035.23 196.455 2033.29 194.858 Q2031.37 193.238 2027.87 193.238 Q2025.65 193.238 2023.54 193.77 Q2021.44 194.303 2019.49 195.367 L2019.49 191.432 Q2021.83 190.53 2024.03 190.09 Q2026.23 189.627 2028.31 189.627 Q2033.94 189.627 2036.71 192.543 Q2039.49 195.46 2039.49 201.386 Z" fill="#000000" fill-rule="evenodd" fill-opacity="1" /><path clip-path="url(#clip990)" d="M2045.21 190.252 L2049.72 190.252 L2057.82 212.011 L2065.93 190.252 L2070.44 190.252 L2060.72 216.178 L2054.93 216.178 L2045.21 190.252 Z" fill="#000000" fill-rule="evenodd" fill-opacity="1" /><path clip-path="url(#clip990)" d="M2088.1 203.145 Q2082.94 203.145 2080.95 204.326 Q2078.96 205.506 2078.96 208.354 Q2078.96 210.622 2080.44 211.965 Q2081.95 213.284 2084.51 213.284 Q2088.06 213.284 2090.19 210.784 Q2092.34 208.261 2092.34 204.094 L2092.34 203.145 L2088.1 203.145 M2096.6 201.386 L2096.6 216.178 L2092.34 216.178 L2092.34 212.242 Q2090.88 214.603 2088.7 215.738 Q2086.53 216.849 2083.38 216.849 Q2079.4 216.849 2077.04 214.627 Q2074.7 212.381 2074.7 208.631 Q2074.7 204.256 2077.62 202.034 Q2080.56 199.812 2086.37 199.812 L2092.34 199.812 L2092.34 199.395 Q2092.34 196.455 2090.39 194.858 Q2088.47 193.238 2084.98 193.238 Q2082.76 193.238 2080.65 193.77 Q2078.54 194.303 2076.6 195.367 L2076.6 191.432 Q2078.94 190.53 2081.13 190.09 Q2083.33 189.627 2085.42 189.627 Q2091.04 189.627 2093.82 192.543 Q2096.6 195.46 2096.6 201.386 Z" fill="#000000" fill-rule="evenodd" fill-opacity="1" /><path clip-path="url(#clip990)" d="M2126.27 182.752 L2126.27 187.312 Q2123.61 186.039 2121.25 185.414 Q2118.89 184.789 2116.69 184.789 Q2112.87 184.789 2110.79 186.27 Q2108.73 187.752 2108.73 190.483 Q2108.73 192.775 2110.09 193.955 Q2111.48 195.113 2115.32 195.83 L2118.15 196.409 Q2123.38 197.405 2125.86 199.928 Q2128.36 202.428 2128.36 206.641 Q2128.36 211.664 2124.98 214.256 Q2121.62 216.849 2115.12 216.849 Q2112.66 216.849 2109.88 216.293 Q2107.13 215.738 2104.17 214.65 L2104.17 209.835 Q2107.01 211.432 2109.75 212.242 Q2112.48 213.053 2115.12 213.053 Q2119.12 213.053 2121.3 211.479 Q2123.47 209.904 2123.47 206.988 Q2123.47 204.442 2121.9 203.006 Q2120.35 201.571 2116.78 200.854 L2113.94 200.298 Q2108.7 199.256 2106.37 197.034 Q2104.03 194.812 2104.03 190.854 Q2104.03 186.27 2107.25 183.631 Q2110.49 180.993 2116.16 180.993 Q2118.59 180.993 2121.11 181.432 Q2123.63 181.872 2126.27 182.752 Z" fill="#000000" fill-rule="evenodd" fill-opacity="1" /><path clip-path="url(#clip990)" d="M2154.12 191.247 L2154.12 195.229 Q2152.32 194.233 2150.49 193.747 Q2148.68 193.238 2146.83 193.238 Q2142.69 193.238 2140.39 195.877 Q2138.1 198.492 2138.1 203.238 Q2138.1 207.983 2140.39 210.622 Q2142.69 213.238 2146.83 213.238 Q2148.68 213.238 2150.49 212.752 Q2152.32 212.242 2154.12 211.247 L2154.12 215.182 Q2152.34 216.016 2150.42 216.432 Q2148.52 216.849 2146.37 216.849 Q2140.51 216.849 2137.06 213.168 Q2133.61 209.488 2133.61 203.238 Q2133.61 196.895 2137.08 193.261 Q2140.58 189.627 2146.64 189.627 Q2148.61 189.627 2150.49 190.043 Q2152.36 190.437 2154.12 191.247 Z" fill="#000000" fill-rule="evenodd" fill-opacity="1" /><path clip-path="url(#clip990)" d="M2176.55 194.233 Q2175.83 193.817 2174.98 193.631 Q2174.14 193.423 2173.13 193.423 Q2169.51 193.423 2167.57 195.784 Q2165.65 198.122 2165.65 202.52 L2165.65 216.178 L2161.37 216.178 L2161.37 190.252 L2165.65 190.252 L2165.65 194.28 Q2166.99 191.918 2169.14 190.784 Q2171.3 189.627 2174.38 189.627 Q2174.81 189.627 2175.35 189.696 Q2175.88 189.743 2176.53 189.858 L2176.55 194.233 Z" fill="#000000" fill-rule="evenodd" fill-opacity="1" /><path clip-path="url(#clip990)" d="M2181.02 190.252 L2185.28 190.252 L2185.28 216.178 L2181.02 216.178 L2181.02 190.252 M2181.02 180.159 L2185.28 180.159 L2185.28 185.553 L2181.02 185.553 L2181.02 180.159 Z" fill="#000000" fill-rule="evenodd" fill-opacity="1" /><path clip-path="url(#clip990)" d="M2198.31 212.289 L2198.31 226.039 L2194.03 226.039 L2194.03 190.252 L2198.31 190.252 L2198.31 194.187 Q2199.65 191.872 2201.69 190.761 Q2203.75 189.627 2206.6 189.627 Q2211.32 189.627 2214.26 193.377 Q2217.22 197.127 2217.22 203.238 Q2217.22 209.349 2214.26 213.099 Q2211.32 216.849 2206.6 216.849 Q2203.75 216.849 2201.69 215.738 Q2199.65 214.603 2198.31 212.289 M2212.8 203.238 Q2212.8 198.539 2210.86 195.877 Q2208.94 193.192 2205.56 193.192 Q2202.18 193.192 2200.23 195.877 Q2198.31 198.539 2198.31 203.238 Q2198.31 207.937 2200.23 210.622 Q2202.18 213.284 2205.56 213.284 Q2208.94 213.284 2210.86 210.622 Q2212.8 207.937 2212.8 203.238 Z" fill="#000000" fill-rule="evenodd" fill-opacity="1" /><path clip-path="url(#clip990)" d="M2228.5 182.891 L2228.5 190.252 L2237.27 190.252 L2237.27 193.562 L2228.5 193.562 L2228.5 207.636 Q2228.5 210.807 2229.35 211.71 Q2230.23 212.613 2232.89 212.613 L2237.27 212.613 L2237.27 216.178 L2232.89 216.178 Q2227.96 216.178 2226.09 214.349 Q2224.21 212.497 2224.21 207.636 L2224.21 193.562 L2221.09 193.562 L2221.09 190.252 L2224.21 190.252 L2224.21 182.891 L2228.5 182.891 Z" fill="#000000" fill-rule="evenodd" fill-opacity="1" /><polyline clip-path="url(#clip990)" style="stroke:#33bbee; stroke-linecap:butt; stroke-linejoin:round; stroke-width:4; stroke-opacity:1; fill:none" points="
  1836.63,250.738 1975.21,250.738 
  "/>
<path clip-path="url(#clip990)" d="M2002.99 237.3 L2002.99 250.286 L2008.87 250.286 Q2012.13 250.286 2013.91 248.596 Q2015.7 246.907 2015.7 243.782 Q2015.7 240.68 2013.91 238.99 Q2012.13 237.3 2008.87 237.3 L2002.99 237.3 M1998.31 233.458 L2008.87 233.458 Q2014.68 233.458 2017.64 236.096 Q2020.63 238.712 2020.63 243.782 Q2020.63 248.897 2017.64 251.513 Q2014.68 254.129 2008.87 254.129 L2002.99 254.129 L2002.99 268.018 L1998.31 268.018 L1998.31 233.458 Z" fill="#000000" fill-rule="evenodd" fill-opacity="1" /><path clip-path="url(#clip990)" d="M2026.9 233.458 L2031.57 233.458 L2031.57 247.624 L2048.57 247.624 L2048.57 233.458 L2053.24 233.458 L2053.24 268.018 L2048.57 268.018 L2048.57 251.559 L2031.57 251.559 L2031.57 268.018 L2026.9 268.018 L2026.9 233.458 Z" fill="#000000" fill-rule="evenodd" fill-opacity="1" /><path clip-path="url(#clip990)" d="M2067.22 237.3 L2067.22 250.286 L2073.1 250.286 Q2076.37 250.286 2078.15 248.596 Q2079.93 246.907 2079.93 243.782 Q2079.93 240.68 2078.15 238.99 Q2076.37 237.3 2073.1 237.3 L2067.22 237.3 M2062.55 233.458 L2073.1 233.458 Q2078.91 233.458 2081.88 236.096 Q2084.86 238.712 2084.86 243.782 Q2084.86 248.897 2081.88 251.513 Q2078.91 254.129 2073.1 254.129 L2067.22 254.129 L2067.22 268.018 L2062.55 268.018 L2062.55 233.458 Z" fill="#000000" fill-rule="evenodd" fill-opacity="1" /><polyline clip-path="url(#clip990)" style="stroke:#ee3377; stroke-linecap:butt; stroke-linejoin:round; stroke-width:4; stroke-opacity:1; fill:none" points="
  1836.63,302.578 1975.21,302.578 
  "/>
<path clip-path="url(#clip990)" d="M2002.99 289.14 L2002.99 302.126 L2008.87 302.126 Q2012.13 302.126 2013.91 300.436 Q2015.7 298.747 2015.7 295.622 Q2015.7 292.52 2013.91 290.83 Q2012.13 289.14 2008.87 289.14 L2002.99 289.14 M1998.31 285.298 L2008.87 285.298 Q2014.68 285.298 2017.64 287.936 Q2020.63 290.552 2020.63 295.622 Q2020.63 300.737 2017.64 303.353 Q2014.68 305.969 2008.87 305.969 L2002.99 305.969 L2002.99 319.858 L1998.31 319.858 L1998.31 285.298 Z" fill="#000000" fill-rule="evenodd" fill-opacity="1" /><path clip-path="url(#clip990)" d="M2037.5 322.265 Q2035.7 326.895 2033.98 328.307 Q2032.27 329.719 2029.4 329.719 L2026 329.719 L2026 326.154 L2028.5 326.154 Q2030.26 326.154 2031.23 325.32 Q2032.2 324.487 2033.38 321.385 L2034.14 319.441 L2023.66 293.932 L2028.17 293.932 L2036.27 314.209 L2044.38 293.932 L2048.89 293.932 L2037.5 322.265 Z" fill="#000000" fill-rule="evenodd" fill-opacity="1" /><path clip-path="url(#clip990)" d="M2058.98 286.571 L2058.98 293.932 L2067.76 293.932 L2067.76 297.242 L2058.98 297.242 L2058.98 311.316 Q2058.98 314.487 2059.84 315.39 Q2060.72 316.293 2063.38 316.293 L2067.76 316.293 L2067.76 319.858 L2063.38 319.858 Q2058.45 319.858 2056.57 318.029 Q2054.7 316.177 2054.7 311.316 L2054.7 297.242 L2051.57 297.242 L2051.57 293.932 L2054.7 293.932 L2054.7 286.571 L2058.98 286.571 Z" fill="#000000" fill-rule="evenodd" fill-opacity="1" /><path clip-path="url(#clip990)" d="M2094.91 304.209 L2094.91 319.858 L2090.65 319.858 L2090.65 304.348 Q2090.65 300.668 2089.21 298.839 Q2087.78 297.01 2084.91 297.01 Q2081.46 297.01 2079.47 299.21 Q2077.48 301.409 2077.48 305.205 L2077.48 319.858 L2073.2 319.858 L2073.2 283.839 L2077.48 283.839 L2077.48 297.96 Q2079.01 295.622 2081.07 294.464 Q2083.15 293.307 2085.86 293.307 Q2090.32 293.307 2092.62 296.085 Q2094.91 298.839 2094.91 304.209 Z" fill="#000000" fill-rule="evenodd" fill-opacity="1" /><path clip-path="url(#clip990)" d="M2113.45 296.918 Q2110.02 296.918 2108.03 299.603 Q2106.04 302.265 2106.04 306.918 Q2106.04 311.571 2108.01 314.256 Q2110 316.918 2113.45 316.918 Q2116.85 316.918 2118.84 314.233 Q2120.83 311.547 2120.83 306.918 Q2120.83 302.311 2118.84 299.626 Q2116.85 296.918 2113.45 296.918 M2113.45 293.307 Q2119.01 293.307 2122.18 296.918 Q2125.35 300.529 2125.35 306.918 Q2125.35 313.284 2122.18 316.918 Q2119.01 320.529 2113.45 320.529 Q2107.87 320.529 2104.7 316.918 Q2101.55 313.284 2101.55 306.918 Q2101.55 300.529 2104.7 296.918 Q2107.87 293.307 2113.45 293.307 Z" fill="#000000" fill-rule="evenodd" fill-opacity="1" /><path clip-path="url(#clip990)" d="M2153.96 304.209 L2153.96 319.858 L2149.7 319.858 L2149.7 304.348 Q2149.7 300.668 2148.26 298.839 Q2146.83 297.01 2143.96 297.01 Q2140.51 297.01 2138.52 299.21 Q2136.53 301.409 2136.53 305.205 L2136.53 319.858 L2132.25 319.858 L2132.25 293.932 L2136.53 293.932 L2136.53 297.96 Q2138.06 295.622 2140.12 294.464 Q2142.2 293.307 2144.91 293.307 Q2149.38 293.307 2151.67 296.085 Q2153.96 298.839 2153.96 304.209 Z" fill="#000000" fill-rule="evenodd" fill-opacity="1" /><polyline clip-path="url(#clip990)" style="stroke:#cc3311; stroke-linecap:butt; stroke-linejoin:round; stroke-width:4; stroke-opacity:1; fill:none" points="
  1836.63,354.418 1975.21,354.418 
  "/>
<path clip-path="url(#clip990)" d="M2014.7 355.494 Q2016.2 356.003 2017.62 357.67 Q2019.05 359.337 2020.49 362.253 L2025.23 371.698 L2020.21 371.698 L2015.79 362.832 Q2014.08 359.36 2012.45 358.225 Q2010.86 357.091 2008.08 357.091 L2002.99 357.091 L2002.99 371.698 L1998.31 371.698 L1998.31 337.138 L2008.87 337.138 Q2014.79 337.138 2017.71 339.614 Q2020.63 342.091 2020.63 347.091 Q2020.63 350.355 2019.1 352.508 Q2017.59 354.661 2014.7 355.494 M2002.99 340.98 L2002.99 353.249 L2008.87 353.249 Q2012.25 353.249 2013.96 351.698 Q2015.7 350.124 2015.7 347.091 Q2015.7 344.059 2013.96 342.531 Q2012.25 340.98 2008.87 340.98 L2002.99 340.98 Z" fill="#000000" fill-rule="evenodd" fill-opacity="1" /><path clip-path="url(#clip990)" d="M2028.5 361.466 L2028.5 345.772 L2032.76 345.772 L2032.76 361.304 Q2032.76 364.985 2034.19 366.836 Q2035.63 368.665 2038.5 368.665 Q2041.95 368.665 2043.94 366.466 Q2045.95 364.267 2045.95 360.471 L2045.95 345.772 L2050.21 345.772 L2050.21 371.698 L2045.95 371.698 L2045.95 367.716 Q2044.4 370.077 2042.34 371.235 Q2040.3 372.369 2037.59 372.369 Q2033.13 372.369 2030.81 369.591 Q2028.5 366.813 2028.5 361.466 M2039.21 345.147 L2039.21 345.147 Z" fill="#000000" fill-rule="evenodd" fill-opacity="1" /><path clip-path="url(#clip990)" d="M2077.59 358.758 Q2077.59 354.059 2075.65 351.397 Q2073.73 348.712 2070.35 348.712 Q2066.97 348.712 2065.02 351.397 Q2063.1 354.059 2063.1 358.758 Q2063.1 363.457 2065.02 366.142 Q2066.97 368.804 2070.35 368.804 Q2073.73 368.804 2075.65 366.142 Q2077.59 363.457 2077.59 358.758 M2063.1 349.707 Q2064.45 347.392 2066.48 346.281 Q2068.54 345.147 2071.39 345.147 Q2076.11 345.147 2079.05 348.897 Q2082.01 352.647 2082.01 358.758 Q2082.01 364.869 2079.05 368.619 Q2076.11 372.369 2071.39 372.369 Q2068.54 372.369 2066.48 371.258 Q2064.45 370.123 2063.1 367.809 L2063.1 371.698 L2058.82 371.698 L2058.82 335.679 L2063.1 335.679 L2063.1 349.707 Z" fill="#000000" fill-rule="evenodd" fill-opacity="1" /><path clip-path="url(#clip990)" d="M2099.86 374.105 Q2098.06 378.735 2096.34 380.147 Q2094.63 381.559 2091.76 381.559 L2088.36 381.559 L2088.36 377.994 L2090.86 377.994 Q2092.62 377.994 2093.59 377.16 Q2094.56 376.327 2095.74 373.225 L2096.51 371.281 L2086.02 345.772 L2090.53 345.772 L2098.63 366.049 L2106.74 345.772 L2111.25 345.772 L2099.86 374.105 Z" fill="#000000" fill-rule="evenodd" fill-opacity="1" /></svg>
